<svg xmlns="http://www.w3.org/2000/svg" xmlns:xlink="http://www.w3.org/1999/xlink" width="25px" height="25px" id="blocker"><defs><path id="a" d="M.06 64V.04H64V64z"></path></defs><g fill="none" fill-rule="evenodd"><mask id="b" fill="#fff"><use xlink:href="#a"></use></mask><path fill="#DEDECA" d="M64 32c0 17.673-14.327 32-32 32C14.327 64 0 49.673 0 32 0 14.327 14.327 0 32 0c17.673 0 32 14.327 32 32" mask="url(#b)"></path><path fill="#B3B2A4" d="M18 50a2 2 0 0 1-2-2v-6 4a2 2 0 1 0 4 0v2a2 2 0 0 1-2 2M46 50a2 2 0 0 1-2-2v-6 4a2 2 0 1 0 4 0v2a2 2 0 0 1-2 2"></path><path fill="#D5915B" d="M20 46a2 2 0 1 1-4 0v-8a2 2 0 1 1 4 0v8M48 46a2 2 0 1 1-4 0v-8a2 2 0 1 1 4 0v8"></path><path fill="#B3B2A4" d="M52 42h-4v-4a2 2 0 1 0-4 0v4H20v-4a2 2 0 1 0-4 0v4h-4a3.978 3.978 0 0 1-3.193-1.614A3.963 3.963 0 0 1 8 38V26a4 4 0 0 1 4-4h40c1.311 0 2.464.639 3.193 1.614.5.667.807 1.488.807 2.386v12a4 4 0 0 1-4 4"></path><path fill="#AE7A51" d="M20 42h-4v-4a2 2 0 1 1 4 0v4M48 42h-4v-4a2 2 0 1 1 4 0v4"></path><path fill="#4C5665" d="M12 20a4 4 0 0 0-4 4v12c0 .898.307 1.719.807 2.386L18 20h-6M30 20 20 40h14l10-20H30"></path><path fill="#F0CB83" d="M18 20 8.807 38.386A3.978 3.978 0 0 0 12 40h8l10-20H18"></path><path fill="#4C5665" d="M46 40h6a4 4 0 0 0 4-4V24c0-.898-.307-1.719-.807-2.386L46 40"></path><path fill="#F0CB83" d="M52 20h-8L34 40h12l9.193-18.386A3.978 3.978 0 0 0 52 20"></path></g></svg>