<svg xmlns="http://www.w3.org/2000/svg" width="32px" height="32px" enable-background="new 0 0 64 64" viewBox="0 0 64 64" id="construction-roller"><path fill="#34495c" d="M10.6,34.91C4.76,34.91,0,39.65,0,45.51c0,5.84,4.76,10.6,10.6,10.6s10.6-4.76,10.6-10.6
		C21.21,39.65,16.45,34.91,10.6,34.91z M10.6,51.82c-3.48,0-6.31-2.83-6.31-6.31c0-3.48,2.83-6.32,6.31-6.32
		c3.48,0,6.31,2.84,6.31,6.32C16.92,48.99,14.08,51.82,10.6,51.82z"></path><path fill="#f6b64e" d="M33.32,38.66h2.04c1.23-2.55,3.25-4.57,5.68-5.82V19.83L36.16,8.42c-0.14-0.32-0.46-0.53-0.81-0.53H21.16
		c-0.49,0-0.88,0.39-0.88,0.88v16.73c0,0.57-0.46,1.03-1.03,1.03H7.36c-2.86,0-5.18,2.33-5.18,5.19v4.34c2.24-2,5.19-3.24,8.43-3.24
		c6.98,0,12.67,5.68,12.67,12.67c0,0.32-0.02,0.63-0.05,0.95h4.97c-0.3-0.68-0.46-1.42-0.46-2.2
		C27.73,41.18,30.23,38.66,33.32,38.66z M23.93,11.59h9.36l3.47,7.87v9.35H23.93V11.59z"></path><path fill="#34495c" d="M46.89 55.02c3.81 0 7.28-1.99 9.21-5.17H37.7C39.62 53.02 43.08 55.02 46.89 55.02zM60.48 40.73H33.32c-1.95 0-3.52 1.59-3.52 3.52 0 1.95 1.58 3.52 3.52 3.52h27.16c1.95 0 3.52-1.58 3.52-3.52C64 42.32 62.42 40.73 60.48 40.73zM46.89 46.42c-1.19 0-2.16-.97-2.16-2.16s.97-2.16 2.16-2.16c1.2 0 2.16.97 2.16 2.16S48.09 46.42 46.89 46.42zM37.71 38.66h18.4c-1.93-3.18-5.39-5.16-9.21-5.16-1.54 0-3.02.33-4.38.94-.02 0-.04.01-.05.02C40.51 35.34 38.83 36.79 37.71 38.66z"></path></svg>