<svg xmlns="http://www.w3.org/2000/svg" width="32px" height="32px" data-name="Layer 1" viewBox="0 0 512 512" id="ferris-wheel"><path fill="#e8edf2" d="M130.43 363.73a7.51 7.51 0 0 1-5.3-12.81L376.27 99.79a7.5 7.5 0 0 1 10.6 10.6L135.73 361.53a7.44 7.44 0 0 1-5.3 2.2Z"></path><path fill="#e8edf2" d="M381.57 363.73a7.44 7.44 0 0 1-5.3-2.2L125.13 110.39a7.5 7.5 0 0 1 10.6-10.6l251.14 251.13a7.51 7.51 0 0 1-5.3 12.81Z"></path><path fill="#685e68" d="M404.16 512a7.5 7.5 0 0 1-6.74-4.21L249.26 204a7.5 7.5 0 1 1 13.48-6.58L410.9 501.21a7.5 7.5 0 0 1-6.74 10.79Z"></path><path fill="#685e68" d="M107.84 512a7.5 7.5 0 0 1-6.74-10.79l148.16-303.84a7.5 7.5 0 0 1 13.48 6.63L114.58 507.79a7.5 7.5 0 0 1-6.74 4.21Z"></path><path fill="#7a6d79" d="M256 451.7A221 221 0 0 1 99.7 74.36 221 221 0 0 1 412.3 387 219.6 219.6 0 0 1 256 451.7Zm0-427.08c-113.61 0-206 92.43-206 206s92.43 206 206 206 206-92.43 206-206-92.39-206-206-206Z"></path><path fill="#7a6d79" d="M256 415.74c-102.05 0-185.08-83-185.08-185.08S154 45.58 256 45.58s185.08 83 185.08 185.08S358.05 415.74 256 415.74Zm0-355.16c-93.78 0-170.08 76.3-170.08 170.08S162.22 400.74 256 400.74s170.08-76.3 170.08-170.08S349.78 60.58 256 60.58Z"></path><path fill="#e8edf2" d="M256 415.74a7.5 7.5 0 0 1-7.5-7.5V53.08a7.5 7.5 0 1 1 15 0v355.16a7.5 7.5 0 0 1-7.5 7.5Z"></path><path fill="#e8edf2" d="M433.58 238.16H78.42a7.5 7.5 0 1 1 0-15h355.16a7.5 7.5 0 0 1 0 15Z"></path><circle cx="256" cy="230.66" r="45.31" fill="#685e68"></circle><path fill="#554e56" d="M284.94 195.8a45.31 45.31 0 0 1-72.88 45.93 45.31 45.31 0 1 0 72.88-45.93Z"></path><rect width="105.8" height="78.1" x="203.1" y="7.5" fill="#fd4755" rx="17"></rect><path fill="#fb2b3a" d="M293.79 7.61a16.83 16.83 0 0 1 .11 1.89 61.11 61.11 0 0 1-61.1 61.1h-27.7a16.83 16.83 0 0 1-1.89-.11A17 17 0 0 0 220.1 85.6h71.8a17 17 0 0 0 17-17V24.5a17 17 0 0 0-15.11-16.89Z"></path><path fill="#c4e2ff" d="M308.9 24.5v28H203.1v-28a17 17 0 0 1 17-17h71.8a17 17 0 0 1 17 17Z"></path><path fill="#b3dafe" d="M308.82 22.82c0-.19-.06-.37-.08-.55-.05-.37-.1-.73-.17-1.09s-.1-.43-.15-.64-.15-.63-.24-.93-.15-.45-.23-.68-.2-.56-.31-.84-.2-.45-.3-.68-.24-.51-.37-.76-.24-.45-.37-.67l-.42-.69-.45-.65c-.15-.21-.3-.42-.46-.62s-.35-.43-.52-.63-.33-.37-.5-.55-.39-.41-.6-.61-.34-.31-.51-.46-.45-.39-.68-.58l-.52-.39c-.25-.18-.5-.37-.77-.54l-.5-.3c-.28-.17-.57-.35-.87-.5-.14-.08-.29-.14-.43-.21-.33-.17-.67-.33-1-.47l-.23-.08a16.55 16.55 0 0 0-4.34-1.09 16.83 16.83 0 0 1 .11 1.89 60.9 60.9 0 0 1-17.7 43h32.7v-28c-.01-.57-.04-1.13-.09-1.68ZM248.5 7.5h15v45h-15z"></path><rect width="105.8" height="78.1" x="353.1" y="53.08" fill="#97d729" rx="17"></rect><path fill="#8bc727" d="M458.9 70.08v44.1a17 17 0 0 1-17 17h-71.8a17 17 0 0 1-16.87-15h14.57a60.9 60.9 0 0 0 43.2-17.9l.19-.2a60.86 60.86 0 0 0 17.71-43 16.39 16.39 0 0 0-.13-2h13.13a17 17 0 0 1 17 17Z"></path><path fill="#c4e2ff" d="M458.9 70.08v28H353.1v-28a17 17 0 0 1 17-17h71.8a17 17 0 0 1 17 17Z"></path><path fill="#b3dafe" d="M458.9 70.08v28h-47.71a60.86 60.86 0 0 0 17.71-43 16.39 16.39 0 0 0-.13-2h13.13a17 17 0 0 1 17 17Z"></path><path fill="#b3dafe" d="M398.5 53.08h15v45h-15z"></path><rect width="105.8" height="78.1" x="398.7" y="186.95" fill="#af66da" rx="17"></rect><path fill="#9857bd" d="M504.5 204v44.1a17 17 0 0 1-17 17h-71.8a17 17 0 0 1-16.87-15h14.57a60.91 60.91 0 0 0 43.21-17.9l.19-.2a60.88 60.88 0 0 0 17.7-43 16.52 16.52 0 0 0-.13-2h13.13a17 17 0 0 1 17 17Z"></path><path fill="#c4e2ff" d="M504.5 204v28H398.7v-28a17 17 0 0 1 17-17h71.8a17 17 0 0 1 17 17Z"></path><path fill="#b3dafe" d="M504.5 204v28h-47.7a60.88 60.88 0 0 0 17.7-43 16.52 16.52 0 0 0-.13-2h13.13a17 17 0 0 1 17 17Z"></path><path fill="#b3dafe" d="M444.1 186.95h15v45h-15z"></path><rect width="105.8" height="78.1" x="383.7" y="318.11" fill="#fd4755" rx="17"></rect><path fill="#fb2b3a" d="M489.5 335.11v44.1a17 17 0 0 1-17 17h-71.8a17 17 0 0 1-16.87-15h14.57a60.91 60.91 0 0 0 43.21-17.9l.19-.2a60.88 60.88 0 0 0 17.7-43 16.52 16.52 0 0 0-.13-2h13.13a17 17 0 0 1 17 17Z"></path><path fill="#c4e2ff" d="M489.5 335.11v28H383.7v-28a17 17 0 0 1 17-17h71.8a17 17 0 0 1 17 17Z"></path><path fill="#b3dafe" d="M489.5 335.11v28h-47.7a60.88 60.88 0 0 0 17.7-43 16.52 16.52 0 0 0-.13-2h13.13a17 17 0 0 1 17 17Z"></path><path fill="#b3dafe" d="M429.1 318.11h15v45h-15z"></path><rect width="105.8" height="78.1" x="203.1" y="382.5" fill="#fed402" rx="17"></rect><path fill="#fac600" d="M308.9 399.5v44.1a17 17 0 0 1-17 17h-71.8a17 17 0 0 1-16.87-15h14.57a60.93 60.93 0 0 0 43.2-17.89l.2-.21a60.86 60.86 0 0 0 17.7-43 16.52 16.52 0 0 0-.13-2h13.13a17 17 0 0 1 17 17Z"></path><path fill="#c4e2ff" d="M308.9 399.5v28H203.1v-28a17 17 0 0 1 17-17h71.8a17 17 0 0 1 17 17Z"></path><path fill="#b3dafe" d="M308.9 399.5v28h-47.7a60.86 60.86 0 0 0 17.7-43 16.52 16.52 0 0 0-.13-2h13.13a17 17 0 0 1 17 17Z"></path><path fill="#b3dafe" d="M248.5 382.5h15v45h-15z"></path><rect width="105.8" height="78.1" x="22.5" y="317.95" fill="#97d729" rx="17"></rect><path fill="#8bc727" d="M128.3 335v44.1a17 17 0 0 1-17 17H39.5a17 17 0 0 1-16.87-15H37.2a60.9 60.9 0 0 0 43.2-17.9l.19-.2a60.85 60.85 0 0 0 17.71-43 16.52 16.52 0 0 0-.13-2h13.13a17 17 0 0 1 17 17Z"></path><path fill="#c4e2ff" d="M128.3 335v28H22.5v-28a17 17 0 0 1 17-17h71.8a17 17 0 0 1 17 17Z"></path><path fill="#b3dafe" d="M128.3 335v28H80.59a60.85 60.85 0 0 0 17.71-43 16.52 16.52 0 0 0-.13-2h13.13a17 17 0 0 1 17 17Z"></path><path fill="#b3dafe" d="M67.9 317.95h15v45h-15z"></path><rect width="105.8" height="78.1" x="7.5" y="186.95" fill="#af66da" rx="17"></rect><path fill="#9857bd" d="M113.3 204v44.1a17 17 0 0 1-17 17H24.5a17 17 0 0 1-16.87-15H22.2a60.9 60.9 0 0 0 43.2-17.9l.19-.2a60.85 60.85 0 0 0 17.71-43 16.52 16.52 0 0 0-.13-2H96.3a17 17 0 0 1 17 17Z"></path><path fill="#c4e2ff" d="M113.3 204v28H7.5v-28a17 17 0 0 1 17-17h71.8a17 17 0 0 1 17 17Z"></path><path fill="#b3dafe" d="M113.3 204v28H65.59a60.85 60.85 0 0 0 17.71-43 16.52 16.52 0 0 0-.13-2H96.3a17 17 0 0 1 17 17Z"></path><path fill="#b3dafe" d="M52.9 186.95h15v45h-15z"></path><rect width="105.8" height="78.1" x="53.1" y="52.95" fill="#fed402" rx="17"></rect><path fill="#fac600" d="M158.9 70v44.1a17 17 0 0 1-17 17H70.1a17 17 0 0 1-16.87-15H67.8A60.9 60.9 0 0 0 111 98.15l.19-.2A60.85 60.85 0 0 0 128.9 55a16.52 16.52 0 0 0-.13-2h13.13a17 17 0 0 1 17 17Z"></path><path fill="#c4e2ff" d="M158.9 70v28H53.1V70a17 17 0 0 1 17-17h71.8a17 17 0 0 1 17 17Z"></path><path fill="#b3dafe" d="M158.9 70v28h-47.71a60.85 60.85 0 0 0 17.71-43 16.52 16.52 0 0 0-.13-2h13.13a17 17 0 0 1 17 17Z"></path><path fill="#b3dafe" d="M98.5 52.95h15v45h-15z"></path><path fill="#685e68" d="M504.5 512H7.5a7.5 7.5 0 0 1 0-15h497a7.5 7.5 0 0 1 0 15Z"></path></svg>