<svg xmlns="http://www.w3.org/2000/svg" width="32px" height="32px" enable-background="new 0 0 64 64" viewBox="0 0 64 64" id="sports-car-crash"><path d="M10.21,41.9c-3.29,0-5.96,2.67-5.96,5.96c0,3.28,2.67,5.95,5.96,5.95c3.28,0,5.95-2.67,5.95-5.95C16.16,44.57,13.49,41.9,10.21,41.9z M10.21,52.82c-2.74,0-4.97-2.22-4.97-4.96c0-2.74,2.23-4.97,4.97-4.97c2.74,0,4.96,2.23,4.96,4.97C15.17,50.6,12.95,52.82,10.21,52.82z"></path><path fill="#787878" d="M10.21,42.89c-2.74,0-4.97,2.23-4.97,4.97c0,2.74,2.23,4.96,4.97,4.96c2.74,0,4.96-2.22,4.96-4.96C15.17,45.12,12.95,42.89,10.21,42.89z M10.21,50.27c-1.34,0-2.42-1.08-2.42-2.41c0-1.33,1.08-2.42,2.42-2.42c1.33,0,2.41,1.09,2.41,2.42C12.62,49.19,11.54,50.27,10.21,50.27z"></path><path fill="#666" d="M10.21,42.89c-2.74,0-4.97,2.23-4.97,4.97c0,2.74,2.23,4.96,4.97,4.96c2.74,0,4.96-2.22,4.96-4.96C15.17,45.12,12.95,42.89,10.21,42.89z M10.21,51.74c-2.14,0-3.89-1.74-3.89-3.88c0-2.14,1.75-3.89,3.89-3.89c2.14,0,3.88,1.75,3.88,3.89C14.09,50,12.35,51.74,10.21,51.74z"></path><path d="M10.21,45.44c-1.34,0-2.42,1.09-2.42,2.42c0,1.33,1.08,2.41,2.42,2.41c1.33,0,2.41-1.08,2.41-2.41C12.62,46.53,11.54,45.44,10.21,45.44z M10.21,49.28c-0.79,0-1.43-0.64-1.43-1.42c0-0.79,0.64-1.43,1.43-1.43c0.78,0,1.42,0.64,1.42,1.43C11.63,48.64,10.99,49.28,10.21,49.28z"></path><path fill="#d6d6d6" d="M11.63,47.86c0,0.78-0.64,1.42-1.42,1.42c-0.79,0-1.43-0.64-1.43-1.42c0-0.79,0.64-1.43,1.43-1.43C10.99,46.43,11.63,47.07,11.63,47.86z"></path><path d="M51.21,46.44c-0.38-0.52-0.94-0.87-1.57-0.97c-0.63-0.1-1.27,0.05-1.8,0.43c-0.52,0.38-0.86,0.94-0.96,1.58c-0.21,1.31,0.69,2.55,2,2.76c0.13,0.02,0.26,0.03,0.39,0.03c0.5,0,0.99-0.16,1.41-0.46c0.52-0.38,0.86-0.94,0.96-1.58C51.75,47.6,51.59,46.96,51.21,46.44z M50.1,49.01c-0.31,0.22-0.69,0.31-1.06,0.26c-0.78-0.13-1.31-0.86-1.19-1.64c0.06-0.37,0.26-0.71,0.57-0.93s0.68-0.32,1.07-0.26c0.37,0.06,0.7,0.27,0.93,0.58c0.22,0.3,0.31,0.68,0.25,1.06C50.61,48.45,50.41,48.79,50.1,49.01z"></path><path d="M62.44,43.28c-4.04-5.09-13.88-7.16-15.31-7.44c-2.61-2.74-8.58-8.86-19.95-11.17c-0.01-0.01-0.03,0-0.04,0c-0.04-0.01-0.07-0.01-0.1,0c-0.03,0-0.06,0-0.09,0.01c-0.03,0.01-0.06,0.02-0.09,0.04c-0.03,0.01-0.05,0.03-0.07,0.04c-0.03,0.02-0.05,0.05-0.07,0.07c-0.02,0.03-0.04,0.05-0.06,0.08c-0.01,0.01-0.02,0.02-0.02,0.03c-0.07,0.15-0.13,0.29-0.18,0.42c-0.16,0.43-0.24,0.65-0.75,0.88c-0.12,0.06-0.21,0.16-0.26,0.28c-0.04,0.13-0.04,0.26,0.02,0.38l1.76,3.72l-2.08,3.9c-1.89-0.38-5.95-1.34-7.08-2.3l-1.84-3.72c-0.08-0.15-0.22-0.25-0.38-0.27c-0.16-0.02-0.32,0.03-0.43,0.16c-0.77,0.85-2.33,2.15-3.24,2.01c-0.28-0.04-0.78-0.19-1.36-0.36c-1.84-0.56-4.92-1.5-7.64-0.9c-0.05,0.02-0.1,0.04-0.15,0.06c-0.22,0.14-0.39,0.25-0.51,0.34c-0.36,0.23-0.59,0.59-0.66,1.02c-0.01,0.08,0,0.15,0.02,0.22c0.45,1.41,0.32,2.55-0.39,3.49l-0.63-0.1c-0.13-0.03-0.26,0.01-0.37,0.08c-0.1,0.08-0.18,0.2-0.2,0.33l-0.23,1.5c-0.38,2.41,1.26,4.67,3.6,5.04l1.37,0.39c0.19,0.05,0.38,0,0.51-0.15l0.79-0.91c0.31,0.02,0.94,0.07,1.89,0.19c1.54,0.2,3.4-2.59,4.01-3.58c0.92,0.06,2.52,1.47,3.54,2.64c-0.16,0.54-0.39,1.73,0.19,3.13c0.06,0.16,0.2,0.27,0.37,0.3l27,4.26c-0.24,3.06,1.91,5.86,5,6.35c0.31,0.05,0.63,0.07,0.93,0.07c2.73,0,5.12-1.89,5.77-4.57c0.6,0.08,1.17,0.12,1.7,0.12c1.67,0,3-0.37,3.97-1.13c0.71-0.56,1.16-1.27,1.44-1.99c0.01,0,0.01,0,0.01,0c0-0.01,0-0.02,0.01-0.02c0.3-0.79,0.43-1.6,0.49-2.25C62.67,43.7,62.59,43.45,62.44,43.28z M28.22,30.87c0.07-0.14,0.08-0.31,0.01-0.45l-0.89-1.86c7.27,1.69,12.06,5.15,14.64,7.55c-4.79,0.02-11.05-0.72-15.8-1.43L28.22,30.87z M54.17,48.63c-0.43,2.71-2.98,4.56-5.69,4.13c-2.7-0.43-4.56-2.98-4.13-5.68c0.21-1.31,0.92-2.47,1.99-3.25c0.86-0.62,1.87-0.95,2.91-0.95c0.26,0,0.53,0.03,0.79,0.07c1.31,0.2,2.46,0.91,3.24,1.98C54.06,46.01,54.38,47.32,54.17,48.63z M60.09,47.45c-1.05,0.83-2.7,1.1-4.89,0.82c0.1-1.39-0.29-2.77-1.12-3.91c-0.94-1.29-2.32-2.14-3.89-2.39c-1.56-0.24-3.14,0.13-4.43,1.07c-1.14,0.83-1.91,2.03-2.25,3.38L16.77,42.2c-0.45-1.34-0.01-2.36,0.01-2.4c0.07-0.17,0.05-0.37-0.07-0.52c-0.5-0.59-3.04-3.53-4.87-3.18c-0.14,0.03-0.26,0.12-0.33,0.24c-0.82,1.4-2.38,3.43-3.16,3.33c-1.46-0.2-2.2-0.21-2.23-0.21c-0.14-0.02-0.29,0.06-0.38,0.17L5,40.48l-1.12-0.32C2,39.87,0.72,38.1,1.02,36.23l0.16-1.01l0.43,0.06c0.16,0.03,0.33-0.03,0.44-0.16c1.06-1.2,1.33-2.72,0.8-4.5c0.03-0.09,0.09-0.19,0.21-0.27c0.11-0.08,0.24-0.16,0.4-0.26c2.44-0.52,5.22,0.33,7.06,0.89c0.65,0.19,1.15,0.35,1.51,0.4c1.3,0.19,2.82-1.07,3.61-1.82l1.58,3.18c0.01,0.02,0.03,0.04,0.04,0.06c0.01,0.02,0.02,0.04,0.03,0.05l3.08,3.45l0.07,1.84c0,0.14,0.06,0.26,0.16,0.35l2.45,2.14c0.09,0.08,0.21,0.12,0.32,0.12c0.14,0,0.27-0.06,0.37-0.17c0.18-0.21,0.16-0.52-0.05-0.69l-2.28-2l-0.07-1.8c0-0.12-0.04-0.23-0.12-0.31l-1.48-1.66c2.25,0.79,5.12,1.35,5.57,1.43c0.01,0,0.01,0.01,0.01,0.01c4.77,0.72,11.29,1.53,16.38,1.53c0.51,0,1-0.01,1.48-0.02c0.19-0.01,0.36-0.13,0.44-0.31c0.07-0.18,0.03-0.39-0.11-0.53c-2.45-2.49-7.88-6.94-16.71-8.8l-0.26-0.54c0.52-0.35,0.68-0.76,0.83-1.17c10.96,2.35,16.69,8.34,19.15,10.92c0.07,0.07,0.16,0.12,0.26,0.14c0.09,0.02,7.24,1.35,12.06,4.6l-0.35,1.38c-0.29,1.1,0.23,2.28,1.24,2.8l1.33,0.68C60.85,46.69,60.53,47.11,60.09,47.45z M61.42,45.31l-1.23-0.62c-0.6-0.32-0.91-1.02-0.74-1.69l0.26-1.01c0.74,0.58,1.41,1.2,1.95,1.88C61.62,44.33,61.56,44.82,61.42,45.31z"></path><path fill="#f2a446" d="M61.66,43.87c-0.04,0.46-0.1,0.95-0.24,1.44l-1.23-0.62c-0.6-0.32-0.91-1.02-0.74-1.69l0.26-1.01C60.45,42.57,61.12,43.19,61.66,43.87z"></path><path fill="#ededed" d="M41.98,36.11c-2.3,0.01-4.93-0.16-7.58-0.41c-0.33-0.03-0.65-0.06-0.98-0.1c-2.54-0.26-5.05-0.59-7.24-0.92l2.04-3.81c0.07-0.14,0.08-0.31,0.01-0.45l-0.89-1.86c1.53,0.35,2.95,0.79,4.26,1.28c0.37,0.13,0.73,0.27,1.07,0.41C37.03,32.04,40.09,34.36,41.98,36.11z"></path><path fill="#787878" d="M53.28,44.93c-0.78-1.07-1.93-1.78-3.24-1.98c-0.26-0.04-0.53-0.07-0.79-0.07c-1.04,0-2.05,0.33-2.91,0.95c-1.07,0.78-1.78,1.94-1.99,3.25c-0.43,2.7,1.43,5.25,4.13,5.68c2.71,0.43,5.26-1.42,5.69-4.13C54.38,47.32,54.06,46.01,53.28,44.93z M51.64,48.23c-0.1,0.64-0.44,1.2-0.96,1.58c-0.42,0.3-0.91,0.46-1.41,0.46c-0.13,0-0.26-0.01-0.39-0.03c-1.31-0.21-2.21-1.45-2-2.76c0.1-0.64,0.44-1.2,0.96-1.58c0.53-0.38,1.17-0.53,1.8-0.43c0.63,0.1,1.19,0.45,1.57,0.97C51.59,46.96,51.75,47.6,51.64,48.23z"></path><path fill="#d6d6d6" d="M50.67,48.08c-0.06,0.37-0.26,0.71-0.57,0.93c-0.31,0.22-0.69,0.31-1.06,0.26c-0.78-0.13-1.31-0.86-1.19-1.64c0.06-0.37,0.26-0.71,0.57-0.93s0.68-0.32,1.07-0.26c0.37,0.06,0.7,0.27,0.93,0.58C50.64,47.32,50.73,47.7,50.67,48.08z"></path><path fill="#66a3f4" d="M61.07,46.24c-0.22,0.45-0.54,0.87-0.98,1.21c-1.05,0.83-2.7,1.1-4.89,0.82c0.1-1.39-0.29-2.77-1.12-3.91c-0.94-1.29-2.32-2.14-3.89-2.39c-1.56-0.24-3.14,0.13-4.43,1.07c-1.14,0.83-1.91,2.03-2.25,3.38L16.77,42.2c-0.45-1.34-0.01-2.36,0.01-2.4c0.07-0.17,0.05-0.37-0.07-0.52c-0.5-0.59-3.04-3.53-4.87-3.18c-0.14,0.03-0.26,0.12-0.33,0.24c-0.82,1.4-2.38,3.43-3.16,3.33c-1.46-0.2-2.2-0.21-2.23-0.21c-0.14-0.02-0.29,0.06-0.38,0.17L5,40.48l-1.12-0.32C2,39.87,0.72,38.1,1.02,36.23l0.16-1.01l0.43,0.06c0.16,0.03,0.33-0.03,0.44-0.16c1.06-1.2,1.33-2.72,0.8-4.5c0.03-0.09,0.09-0.19,0.21-0.27c0.11-0.08,0.24-0.16,0.4-0.26c2.44-0.52,5.22,0.33,7.06,0.89c0.65,0.19,1.15,0.35,1.51,0.4c1.3,0.19,2.82-1.07,3.61-1.82l1.58,3.18c0.01,0.02,0.03,0.04,0.04,0.06c0.01,0.02,0.02,0.04,0.03,0.05l3.08,3.45l0.07,1.84c0,0.14,0.06,0.26,0.16,0.35l2.45,2.14c0.09,0.08,0.21,0.12,0.32,0.12c0.14,0,0.27-0.06,0.37-0.17c0.18-0.21,0.16-0.52-0.05-0.69l-2.28-2l-0.07-1.8c0-0.12-0.04-0.23-0.12-0.31l-1.48-1.66c2.25,0.79,5.12,1.35,5.57,1.43c0.01,0,0.01,0.01,0.01,0.01c4.77,0.72,11.29,1.53,16.38,1.53c0.51,0,1-0.01,1.48-0.02c0.19-0.01,0.36-0.13,0.44-0.31c0.07-0.18,0.03-0.39-0.11-0.53c-2.45-2.49-7.88-6.94-16.71-8.8l-0.26-0.54c0.52-0.35,0.68-0.76,0.83-1.17c10.96,2.35,16.69,8.34,19.15,10.92c0.07,0.07,0.16,0.12,0.26,0.14c0.09,0.02,7.24,1.35,12.06,4.6l-0.35,1.38c-0.29,1.1,0.23,2.28,1.24,2.8L61.07,46.24z"></path><path fill="#8abafa" d="M58.85,41.38l-0.23,0.9c-4.82-3.16-12-4.57-12.09-4.59c-0.1-0.02-0.19-0.07-0.26-0.14c-2.43-2.54-8.4-8.68-19.36-10.96c0.25-0.28,0.36-0.57,0.47-0.87c10.96,2.35,16.69,8.34,19.15,10.92c0.07,0.07,0.16,0.12,0.26,0.14C46.88,36.8,54.03,38.13,58.85,41.38z"></path><path fill="#5691de" d="M61.07 46.24c-.13.28-.31.54-.52.78-.14.15-.29.3-.46.43-1.05.83-2.7 1.1-4.89.82.03-.46.01-.92-.05-1.37 2.07.19 4.25-.18 5.24-.96.01-.01.02-.02.03-.03L61.07 46.24zM44.15 44.84c-.29.49-.5 1.02-.64 1.58L16.77 42.2c-.21-.62-.23-1.17-.18-1.59l.48.08L44.15 44.84zM9.01 39.41c-.25.19-.48.28-.66.26-1.46-.2-2.2-.21-2.23-.21-.14-.02-.29.06-.38.17L5 40.48l-1.12-.32C2 39.87.72 38.1 1.02 36.23l.01-.08.15-.93.1.01c-.02 1.67 1.19 3.16 2.89 3.42L9.01 39.41z"></path><path d="M27.93,19.74c-0.14-0.36-0.46-0.63-0.84-0.72l-1.43-0.34c-0.09-0.02-0.15-0.1-0.16-0.2c-0.05-1.43-0.3-2.46-0.8-3.27c-0.75-1.05-1.98-1.75-3.74-2.13c-0.56-0.12-1.14,0.2-1.35,0.74l-0.67,1.73c-0.03,0.07-0.09,0.12-0.16,0.13l-1.57,0.27c-0.35,0.06-0.65,0.28-0.83,0.58c-0.17,0.31-0.2,0.68-0.08,1.01c0.45,1.21,1.2,2.76,2.2,3.26c0.13,0.07,0.29,0.07,0.42,0.01l1.87-0.87c0.1-0.04,0.22,0,0.27,0.09l1.25,2.33c0.2,0.38,0.57,0.61,0.99,0.63c0.07,0,0.16,0.01,0.26,0.01c1.04,0,3.06-0.28,4.29-2.2C28.05,20.48,28.08,20.09,27.93,19.74z M27.01,20.27c-1.05,1.67-2.91,1.77-3.67,1.74c-0.07-0.01-0.13-0.05-0.16-0.11l-1.25-2.33c-0.21-0.4-0.62-0.63-1.05-0.63c-0.17,0-0.34,0.03-0.5,0.11l-1.63,0.75c-0.5-0.38-1.05-1.31-1.53-2.6c-0.03-0.08,0-0.15,0.02-0.18c0.02-0.03,0.06-0.08,0.14-0.1l1.57-0.27c0.41-0.07,0.76-0.36,0.91-0.74l0.67-1.73c0.03-0.1,0.13-0.15,0.22-0.13c1.52,0.32,2.55,0.89,3.13,1.71c0.39,0.63,0.6,1.5,0.64,2.75c0.02,0.55,0.4,1.01,0.92,1.13l1.43,0.34c0.07,0.01,0.13,0.06,0.15,0.13C27.04,20.15,27.05,20.21,27.01,20.27z"></path><path fill="#66a3f4" d="M27.01,20.27c-1.05,1.67-2.91,1.77-3.67,1.74c-0.07-0.01-0.13-0.05-0.16-0.11l-1.25-2.33c-0.21-0.4-0.62-0.63-1.05-0.63c-0.17,0-0.34,0.03-0.5,0.11l-1.63,0.75c-0.5-0.38-1.05-1.31-1.53-2.6c-0.03-0.08,0-0.15,0.02-0.18c0.02-0.03,0.06-0.08,0.14-0.1l1.57-0.27c0.41-0.07,0.76-0.36,0.91-0.74l0.67-1.73c0.03-0.1,0.13-0.15,0.22-0.13c1.52,0.32,2.55,0.89,3.13,1.71c0.39,0.63,0.6,1.5,0.64,2.75c0.02,0.55,0.4,1.01,0.92,1.13l1.43,0.34c0.07,0.01,0.13,0.06,0.15,0.13C27.04,20.15,27.05,20.21,27.01,20.27z"></path><path fill="#8abafa" d="M27.01,20.27c-0.12,0.2-0.26,0.37-0.4,0.53c-0.03-0.07-0.08-0.11-0.15-0.12l-1.43-0.34c-0.52-0.12-0.9-0.58-0.92-1.13c-0.04-1.25-0.25-2.12-0.64-2.75c-0.58-0.82-1.61-1.39-3.13-1.71h-0.03l0.22-0.57c0.03-0.1,0.13-0.15,0.22-0.13c1.52,0.32,2.55,0.89,3.13,1.71c0.39,0.63,0.6,1.5,0.64,2.75c0.02,0.55,0.4,1.01,0.92,1.13l1.43,0.34c0.07,0.01,0.13,0.06,0.15,0.13C27.04,20.15,27.05,20.21,27.01,20.27z"></path><path fill="#5691de" d="M24.05,21.99c-0.28,0.03-0.53,0.03-0.71,0.02c-0.07-0.01-0.13-0.05-0.16-0.11l-1.25-2.33c-0.21-0.4-0.62-0.63-1.05-0.63c-0.17,0-0.34,0.03-0.5,0.11l-1.63,0.75c-0.45-0.34-0.95-1.14-1.39-2.25c-0.05-0.11-0.1-0.23-0.14-0.35c-0.03-0.08,0-0.15,0.02-0.18c0.02-0.03,0.06-0.08,0.14-0.1l0.25-0.04c0.37,0.97,0.78,1.72,1.18,2.16c0.15,0.16,0.38,0.21,0.58,0.12l1.33-0.61c0.16-0.08,0.33-0.11,0.5-0.11c0.43,0,0.84,0.23,1.05,0.63l1.64,2.83C23.96,21.93,24,21.96,24.05,21.99z"></path><path d="M15.42,12.34l-0.97-1.31c-0.03-0.03-0.04-0.08-0.02-0.12l0.54-1.29c0.12-0.31,0.11-0.65-0.05-0.94c-0.15-0.3-0.43-0.5-0.75-0.57c-1.64-0.35-2.81-0.31-3.5,0.11c-0.13,0.08-0.22,0.21-0.24,0.36l-0.23,1.79c-0.01,0.07-0.06,0.11-0.13,0.11l-2.32-0.17c-0.39-0.03-0.76,0.15-0.99,0.47c-0.47,0.68-1.46,2.47-0.51,4.48c0.15,0.31,0.44,0.53,0.79,0.59c0.07,0.02,0.13,0.02,0.2,0.02c0.29,0,0.57-0.11,0.79-0.32l0.92-0.91c0.04-0.04,0.1-0.04,0.15-0.01c1.1,0.64,1.99,0.94,2.85,0.94c1.15-0.06,2.26-0.65,3.38-1.8C15.7,13.39,15.74,12.77,15.42,12.34z M14.63,13.08c-0.95,0.96-1.84,1.46-2.71,1.51c-0.64,0-1.38-0.26-2.32-0.81c-0.44-0.26-0.99-0.19-1.34,0.16l-0.93,0.91c-0.04,0.04-0.1,0.04-0.19-0.02c-0.73-1.54,0.06-2.95,0.43-3.49c0.02-0.03,0.06-0.04,0.1-0.04h0.01L10,11.46c0.58,0.04,1.1-0.38,1.18-0.96l0.2-1.53c0.51-0.17,1.45-0.14,2.58,0.1c0.05,0.01,0.08,0.04,0.09,0.06c0.01,0.03,0.02,0.06,0,0.11l-0.53,1.3c-0.15,0.35-0.1,0.77,0.14,1.08l0.97,1.31C14.66,12.98,14.66,13.04,14.63,13.08z"></path><path fill="#66a3f4" d="M14.63,12.93c0.03,0.05,0.03,0.11,0,0.15c-0.95,0.96-1.84,1.46-2.71,1.51c-0.64,0-1.38-0.26-2.32-0.81c-0.44-0.26-0.99-0.19-1.34,0.16l-0.93,0.91c-0.04,0.04-0.1,0.04-0.19-0.02c-0.73-1.54,0.06-2.95,0.43-3.49c0.02-0.03,0.06-0.04,0.1-0.04h0.01L10,11.46c0.58,0.04,1.1-0.38,1.18-0.96l0.2-1.53c0.51-0.17,1.45-0.14,2.58,0.1c0.05,0.01,0.08,0.04,0.09,0.06c0.01,0.03,0.02,0.06,0,0.11l-0.53,1.3c-0.15,0.35-0.1,0.77,0.14,1.08L14.63,12.93z"></path><path fill="#8abafa" d="M14.05,9.13c0.01,0.03,0.02,0.06,0,0.11L13.9,9.61c-0.96-0.17-1.74-0.18-2.19-0.03l-0.2,1.53c-0.08,0.58-0.6,1-1.18,0.96l-3.05-0.23c0.1-0.21,0.21-0.38,0.29-0.5c0.02-0.03,0.06-0.04,0.1-0.04h0.01L10,11.46c0.58,0.04,1.1-0.38,1.18-0.96l0.2-1.53c0.51-0.17,1.45-0.14,2.58,0.1C14.01,9.08,14.04,9.11,14.05,9.13z"></path><path fill="#5691de" d="M14.63,12.93c0.03,0.05,0.03,0.11,0,0.15l-0.01,0.01c-0.95,0.95-1.83,1.45-2.7,1.5c-0.64,0-1.38-0.26-2.32-0.81c-0.44-0.26-0.99-0.19-1.34,0.16l-0.93,0.91c-0.02,0.02-0.06,0.03-0.1,0.02c-0.02,0-0.06-0.02-0.09-0.04c-0.1-0.2-0.17-0.39-0.21-0.58c0.06,0.03,0.11,0.02,0.14-0.01L8,13.33c0.35-0.35,0.9-0.42,1.34-0.16c0.94,0.55,1.68,0.81,2.32,0.81c0.85-0.05,1.73-0.53,2.66-1.46L14.63,12.93z"></path><path d="M14.58,23.52c-0.14-0.37-0.49-0.66-0.93-0.74l-1.55-0.29c-0.13-0.03-0.19-0.1-0.19-0.13c-0.05-1.29-0.33-2.21-0.89-2.94c-0.82-0.92-2.13-1.53-4.03-1.87c-0.57-0.09-1.16,0.18-1.38,0.66l-0.73,1.52c-0.02,0.04-0.08,0.1-0.2,0.11l-1.71,0.24c-0.4,0.06-0.75,0.29-0.92,0.61C1.88,20.97,1.87,21.3,2,21.6c0.49,1.07,1.31,2.44,2.39,2.88c0.11,0.05,0.24,0.05,0.36,0l2.03-0.76c0.16-0.06,0.35,0,0.4,0.08l1.35,2.05c0.22,0.33,0.6,0.53,1.02,0.55h0.28c1.11,0,3.28-0.23,4.59-1.92C14.65,24.2,14.71,23.85,14.58,23.52z M9.6,25.41c-0.12,0-0.2-0.06-0.23-0.1l-1.36-2.05c-0.23-0.35-0.64-0.55-1.08-0.55c-0.16,0-0.33,0.03-0.49,0.09l-1.83,0.69c-0.56-0.32-1.17-1.15-1.7-2.33c0.02-0.03,0.08-0.09,0.2-0.1l1.71-0.24c0.43-0.06,0.78-0.31,0.95-0.66l0.72-1.52c0.03-0.07,0.17-0.15,0.33-0.12c1.65,0.29,2.81,0.81,3.44,1.52c0.41,0.54,0.62,1.29,0.67,2.36c0.02,0.52,0.43,0.95,0.98,1.05l1.56,0.3c0.14,0.02,0.19,0.1,0.19,0.12C12.5,25.35,10.44,25.44,9.6,25.41z"></path><path fill="#66a3f4" d="M13.66,23.87c-1.16,1.48-3.22,1.57-4.06,1.54c-0.12,0-0.2-0.06-0.23-0.1l-1.36-2.05c-0.23-0.35-0.64-0.55-1.08-0.55c-0.16,0-0.33,0.03-0.49,0.09l-1.83,0.69c-0.56-0.32-1.17-1.15-1.7-2.33c0.02-0.03,0.08-0.09,0.2-0.1l1.71-0.24c0.43-0.06,0.78-0.31,0.95-0.66l0.72-1.52c0.03-0.07,0.17-0.15,0.33-0.12c1.65,0.29,2.81,0.81,3.44,1.52c0.41,0.54,0.62,1.29,0.67,2.36c0.02,0.52,0.43,0.95,0.98,1.05l1.56,0.3C13.61,23.77,13.66,23.85,13.66,23.87z"></path><path fill="#5691de" d="M10.13,25.4c-0.21,0.02-0.39,0.02-0.53,0.01c-0.12,0-0.2-0.06-0.23-0.1l-1.36-2.05c-0.23-0.35-0.64-0.55-1.08-0.55c-0.16,0-0.33,0.03-0.49,0.09l-1.83,0.69c-0.56-0.32-1.17-1.15-1.7-2.33c0.02-0.03,0.08-0.09,0.2-0.1l0.38-0.05c0.48,0.93,1,1.59,1.48,1.86l1.83-0.69c0.16-0.06,0.33-0.1,0.49-0.1c0.44,0,0.85,0.21,1.08,0.55L10.13,25.4z"></path><path fill="#8abafa" d="M13.66,23.87c-0.15,0.19-0.31,0.35-0.48,0.48c-0.02-0.03-0.07-0.09-0.18-0.1l-1.56-0.31c-0.55-0.08-0.96-0.51-0.98-1.05c-0.05-1.07-0.26-1.82-0.67-2.34C9.16,19.82,8,19.31,6.35,19.01H6.32l0.17-0.37c0.02-0.03,0.06-0.07,0.11-0.1c0.06-0.02,0.14-0.04,0.22-0.02c1.65,0.29,2.81,0.81,3.44,1.52c0.41,0.54,0.62,1.29,0.67,2.36c0.02,0.52,0.43,0.95,0.98,1.05l1.56,0.3c0.04,0.01,0.07,0.02,0.1,0.03C13.63,23.81,13.66,23.86,13.66,23.87z"></path><path d="M63.51,55.14H1.18c-0.27,0-0.49,0.22-0.49,0.49c0,0.27,0.22,0.49,0.49,0.49h62.33c0.27,0,0.49-0.22,0.49-0.49C64,55.36,63.78,55.14,63.51,55.14z"></path><path fill="#666" d="M49.26,42.89c-2.74,0-4.97,2.23-4.97,4.97s2.23,4.96,4.97,4.96c2.74,0,4.96-2.22,4.96-4.96S52,42.89,49.26,42.89z M49.26,51.74c-2.14,0-3.89-1.74-3.89-3.88c0-2.14,1.75-3.89,3.89-3.89c2.14,0,3.88,1.75,3.88,3.89C53.14,50,51.4,51.74,49.26,51.74z"></path><path fill="#d6d6d6" d="M34.4,35.7c-0.33-0.03-0.65-0.06-0.98-0.1l-1.82-5.76c0.37,0.13,0.73,0.27,1.07,0.41L34.4,35.7z"></path></svg>