<svg xmlns="http://www.w3.org/2000/svg" width="25px" height="25px" data-name="1" viewBox="0 0 128 128" id="warning"><path d="M126 120H2a2 2 0 0 1-1.73-3l62-108a2 2 0 0 1 3.46 0l62 108a2 2 0 0 1-1.73 3ZM5.45 116h117.1L64 14Z"></path><path d="M64 108a8.81 8.81 0 1 1 8.81-8.81A8.82 8.82 0 0 1 64 108zm0-13.62a4.81 4.81 0 1 0 4.81 4.81A4.82 4.82 0 0 0 64 94.38zm0-8.05a8.82 8.82 0 0 1-8.81-8.81V52.81a8.81 8.81 0 0 1 17.62 0v24.71A8.82 8.82 0 0 1 64 86.33zM64 48a4.82 4.82 0 0 0-4.81 4.81v24.71a4.81 4.81 0 0 0 9.62 0V52.81A4.82 4.82 0 0 0 64 48z"></path></svg>